<mxfile host="app.diagrams.net" modified="2021-09-18T16:37:59.432Z" agent="5.0 (Windows NT 10.0; Win64; x64) AppleWebKit/537.36 (KHTML, like Gecko) Chrome/93.0.4577.82 Safari/537.36" etag="wE2sJZ68ED275MqxGua0" version="15.2.9" type="github">
  <diagram id="prtHgNgQTEPvFCAcTncT" name="Page-1">
    <mxGraphModel dx="1038" dy="521" grid="1" gridSize="10" guides="1" tooltips="1" connect="1" arrows="1" fold="1" page="1" pageScale="1" pageWidth="827" pageHeight="1169" math="0" shadow="0">
      <root>
        <mxCell id="0" />
        <mxCell id="1" parent="0" />
        <mxCell id="b9YMpVK1cU2BV_z4t6fd-1" value="" style="rounded=0;whiteSpace=wrap;html=1;" vertex="1" parent="1">
          <mxGeometry x="10" y="400" width="810" height="100" as="geometry" />
        </mxCell>
        <mxCell id="b9YMpVK1cU2BV_z4t6fd-9" value="Boot&lt;br&gt;Sector" style="text;strokeColor=none;fillColor=none;html=1;fontSize=24;fontStyle=1;verticalAlign=middle;align=center;" vertex="1" parent="1">
          <mxGeometry x="20" y="400" width="100" height="100" as="geometry" />
        </mxCell>
        <mxCell id="b9YMpVK1cU2BV_z4t6fd-10" value="" style="line;strokeWidth=1;direction=south;html=1;" vertex="1" parent="1">
          <mxGeometry x="414" y="400" width="10" height="100" as="geometry" />
        </mxCell>
        <mxCell id="b9YMpVK1cU2BV_z4t6fd-11" value="" style="line;strokeWidth=1;direction=south;html=1;" vertex="1" parent="1">
          <mxGeometry x="600" y="400" width="10" height="100" as="geometry" />
        </mxCell>
        <mxCell id="b9YMpVK1cU2BV_z4t6fd-12" value="" style="line;strokeWidth=1;direction=south;html=1;" vertex="1" parent="1">
          <mxGeometry x="280" y="400" width="10" height="100" as="geometry" />
        </mxCell>
        <mxCell id="b9YMpVK1cU2BV_z4t6fd-13" value="FAT 1" style="text;strokeColor=none;fillColor=none;html=1;fontSize=24;fontStyle=1;verticalAlign=middle;align=center;" vertex="1" parent="1">
          <mxGeometry x="140" y="400" width="140" height="100" as="geometry" />
        </mxCell>
        <mxCell id="b9YMpVK1cU2BV_z4t6fd-14" value="FAT 2" style="text;strokeColor=none;fillColor=none;html=1;fontSize=24;fontStyle=1;verticalAlign=middle;align=center;" vertex="1" parent="1">
          <mxGeometry x="290" y="400" width="130" height="100" as="geometry" />
        </mxCell>
        <mxCell id="b9YMpVK1cU2BV_z4t6fd-15" value="" style="line;strokeWidth=1;direction=south;html=1;" vertex="1" parent="1">
          <mxGeometry x="130" y="400" width="10" height="100" as="geometry" />
        </mxCell>
        <mxCell id="b9YMpVK1cU2BV_z4t6fd-17" value="Root&lt;br&gt;Directory" style="text;strokeColor=none;fillColor=none;html=1;fontSize=24;fontStyle=1;verticalAlign=middle;align=center;" vertex="1" parent="1">
          <mxGeometry x="420" y="400" width="170" height="100" as="geometry" />
        </mxCell>
        <mxCell id="b9YMpVK1cU2BV_z4t6fd-18" value="Data&lt;br&gt;Area" style="text;strokeColor=none;fillColor=none;html=1;fontSize=24;fontStyle=1;verticalAlign=middle;align=center;" vertex="1" parent="1">
          <mxGeometry x="600" y="400" width="220" height="100" as="geometry" />
        </mxCell>
        <mxCell id="b9YMpVK1cU2BV_z4t6fd-22" style="edgeStyle=orthogonalEdgeStyle;rounded=0;orthogonalLoop=1;jettySize=auto;html=1;entryX=0.5;entryY=1;entryDx=0;entryDy=0;" edge="1" parent="1" source="b9YMpVK1cU2BV_z4t6fd-20" target="b9YMpVK1cU2BV_z4t6fd-9">
          <mxGeometry relative="1" as="geometry" />
        </mxCell>
        <mxCell id="b9YMpVK1cU2BV_z4t6fd-20" value="&lt;font style=&quot;font-size: 18px&quot;&gt;This sector contains the master boot record, BIOS Parameter Block (BPB), and partition info&amp;nbsp;&lt;/font&gt;" style="shape=ext;double=1;rounded=1;whiteSpace=wrap;html=1;strokeWidth=1;" vertex="1" parent="1">
          <mxGeometry x="10" y="610" width="120" height="250" as="geometry" />
        </mxCell>
        <mxCell id="b9YMpVK1cU2BV_z4t6fd-26" style="edgeStyle=orthogonalEdgeStyle;rounded=0;orthogonalLoop=1;jettySize=auto;html=1;entryX=0.431;entryY=0.01;entryDx=0;entryDy=0;entryPerimeter=0;" edge="1" parent="1" source="b9YMpVK1cU2BV_z4t6fd-25" target="b9YMpVK1cU2BV_z4t6fd-13">
          <mxGeometry relative="1" as="geometry" />
        </mxCell>
        <mxCell id="b9YMpVK1cU2BV_z4t6fd-25" value="&lt;font style=&quot;font-size: 18px&quot;&gt;FAT 1 and FAT 2 are both used as references for the Data Area, pointing to clusters that are used for files and directories&amp;nbsp;&lt;/font&gt;" style="shape=ext;double=1;rounded=1;whiteSpace=wrap;html=1;strokeWidth=1;" vertex="1" parent="1">
          <mxGeometry x="140" y="70" width="120" height="250" as="geometry" />
        </mxCell>
        <mxCell id="b9YMpVK1cU2BV_z4t6fd-29" style="edgeStyle=orthogonalEdgeStyle;rounded=0;orthogonalLoop=1;jettySize=auto;html=1;entryX=0.443;entryY=1.002;entryDx=0;entryDy=0;entryPerimeter=0;" edge="1" parent="1" source="b9YMpVK1cU2BV_z4t6fd-27" target="b9YMpVK1cU2BV_z4t6fd-14">
          <mxGeometry relative="1" as="geometry" />
        </mxCell>
        <mxCell id="b9YMpVK1cU2BV_z4t6fd-27" value="&lt;span style=&quot;font-size: 18px&quot;&gt;FAT 2 is for the sake of redundancy. FAT 2 is kept in synchronization with FAT 1 in case errors happen to occur&lt;/span&gt;" style="shape=ext;double=1;rounded=1;whiteSpace=wrap;html=1;strokeWidth=1;" vertex="1" parent="1">
          <mxGeometry x="280" y="610" width="135" height="250" as="geometry" />
        </mxCell>
        <mxCell id="b9YMpVK1cU2BV_z4t6fd-31" style="edgeStyle=orthogonalEdgeStyle;rounded=0;orthogonalLoop=1;jettySize=auto;html=1;entryX=0.5;entryY=0;entryDx=0;entryDy=0;" edge="1" parent="1" source="b9YMpVK1cU2BV_z4t6fd-30" target="b9YMpVK1cU2BV_z4t6fd-17">
          <mxGeometry relative="1" as="geometry" />
        </mxCell>
        <mxCell id="b9YMpVK1cU2BV_z4t6fd-30" value="&lt;span style=&quot;font-size: 18px&quot;&gt;A Directory Table that stores information about files and directories contained in Root.&lt;/span&gt;" style="shape=ext;double=1;rounded=1;whiteSpace=wrap;html=1;strokeWidth=1;" vertex="1" parent="1">
          <mxGeometry x="437.5" y="70" width="135" height="250" as="geometry" />
        </mxCell>
        <mxCell id="b9YMpVK1cU2BV_z4t6fd-33" style="edgeStyle=orthogonalEdgeStyle;rounded=0;orthogonalLoop=1;jettySize=auto;html=1;entryX=0.5;entryY=1;entryDx=0;entryDy=0;" edge="1" parent="1" source="b9YMpVK1cU2BV_z4t6fd-32" target="b9YMpVK1cU2BV_z4t6fd-18">
          <mxGeometry relative="1" as="geometry" />
        </mxCell>
        <mxCell id="b9YMpVK1cU2BV_z4t6fd-32" value="&lt;span style=&quot;font-size: 18px&quot;&gt;This is where the actual file and directory data is stored. The files are allocated in clusters.&amp;nbsp;&lt;/span&gt;" style="shape=ext;double=1;rounded=1;whiteSpace=wrap;html=1;strokeWidth=1;" vertex="1" parent="1">
          <mxGeometry x="642.5" y="610" width="135" height="250" as="geometry" />
        </mxCell>
      </root>
    </mxGraphModel>
  </diagram>
</mxfile>
